<svg xmlns="http://www.w3.org/2000/svg" xmlns:xlink="http://www.w3.org/1999/xlink" width="500" zoomAndPan="magnify" viewBox="0 0 375 374.999991" height="500" preserveAspectRatio="xMidYMid meet" version="1.0"><defs><g/><clipPath id="707faac0ce"><path d="M 94.738281 119 L 248 119 L 248 164 L 94.738281 164 Z M 94.738281 119 " clip-rule="nonzero"/></clipPath><clipPath id="095a72a824"><path d="M 122 147 L 271.738281 147 L 271.738281 167 L 122 167 Z M 122 147 " clip-rule="nonzero"/></clipPath></defs><rect x="-37.5" width="450" fill="#ffffff" y="-37.499999" height="449.999989" fill-opacity="1"/><rect x="-37.5" width="450" fill="#000000" y="-37.499999" height="449.999989" fill-opacity="1"/><g fill="#ffffff" fill-opacity="1"><g transform="translate(69.954662, 243.673386)"><g><path d="M -2.671875 0 L 0 -2.671875 L 0 -72.125 L -2.671875 -74.796875 L 18.703125 -74.796875 L 18.703125 -69.453125 L 16.03125 -72.125 L 5.34375 -72.125 L 5.34375 -32.0625 L 13.359375 -32.0625 L 13.359375 -29.390625 L 5.34375 -29.390625 L 5.34375 -2.671875 L 8.015625 0 Z M -2.671875 0 "/></g></g></g><g fill="#ffffff" fill-opacity="1"><g transform="translate(94.99808, 243.673386)"><g><path d="M 16.03125 -29.390625 L 16.03125 -69.453125 C 16.03125 -70.179688 15.75 -70.796875 15.1875 -71.296875 C 14.6875 -71.847656 14.078125 -72.125 13.359375 -72.125 L 8.015625 -72.125 C 7.234375 -72.125 6.59375 -71.847656 6.09375 -71.296875 C 5.59375 -70.796875 5.34375 -70.179688 5.34375 -69.453125 L 5.34375 -29.390625 Z M -2.671875 0 L 0 -2.671875 L 0 -69.453125 C 0 -70.898438 0.5 -72.15625 1.5 -73.21875 C 2.5625 -74.269531 3.84375 -74.796875 5.34375 -74.796875 L 16.03125 -74.796875 C 17.476562 -74.796875 18.726562 -74.269531 19.78125 -73.21875 C 20.84375 -72.15625 21.375 -70.898438 21.375 -69.453125 L 21.375 -2.671875 L 24.046875 0 L 16.03125 0 L 16.03125 -26.71875 L 5.34375 -26.71875 L 5.34375 0 Z M -2.671875 0 "/></g></g></g><g fill="#ffffff" fill-opacity="1"><g transform="translate(125.384094, 243.673386)"><g><path d="M 0 0 L 0 -5.34375 L 2.671875 -2.671875 L 13.359375 -2.671875 C 14.078125 -2.671875 14.6875 -2.921875 15.1875 -3.421875 C 15.75 -3.921875 16.03125 -4.5625 16.03125 -5.34375 L 16.03125 -24.046875 C 16.03125 -24.765625 15.75 -25.375 15.1875 -25.875 C 14.6875 -26.4375 14.078125 -26.71875 13.359375 -26.71875 L 5.34375 -26.71875 C 3.84375 -26.71875 2.5625 -27.21875 1.5 -28.21875 C 0.5 -29.269531 0 -30.550781 0 -32.0625 L 0 -69.453125 C 0 -70.898438 0.5 -72.15625 1.5 -73.21875 C 2.5625 -74.269531 3.84375 -74.796875 5.34375 -74.796875 L 21.375 -74.796875 L 21.375 -69.453125 L 18.703125 -72.125 L 8.015625 -72.125 C 7.234375 -72.125 6.59375 -71.847656 6.09375 -71.296875 C 5.59375 -70.796875 5.34375 -70.179688 5.34375 -69.453125 L 5.34375 -32.0625 C 5.34375 -31.28125 5.59375 -30.640625 6.09375 -30.140625 C 6.59375 -29.640625 7.234375 -29.390625 8.015625 -29.390625 L 16.03125 -29.390625 C 17.476562 -29.390625 18.726562 -28.859375 19.78125 -27.796875 C 20.84375 -26.742188 21.375 -25.492188 21.375 -24.046875 L 21.375 -5.34375 C 21.375 -3.84375 20.84375 -2.5625 19.78125 -1.5 C 18.726562 -0.5 17.476562 0 16.03125 0 Z M 0 0 "/></g></g></g><g fill="#ffffff" fill-opacity="1"><g transform="translate(153.09881, 243.673386)"><g><path d="M 6.671875 0 L 9.34375 -2.671875 L 9.34375 -72.125 L 2.671875 -72.125 L 0 -69.453125 L 0 -74.796875 L 24.046875 -74.796875 L 24.046875 -69.453125 L 21.375 -72.125 L 14.6875 -72.125 L 14.6875 -2.671875 L 17.359375 0 Z M 6.671875 0 "/></g></g></g><g fill="#ffffff" fill-opacity="1"><g transform="translate(183.484824, 243.673386)"><g><path d="M -2.671875 0 L 0 -2.671875 L 0 -72.125 L -2.671875 -74.796875 L 8.015625 -74.796875 L 5.34375 -72.125 L 5.34375 -2.671875 L 16.03125 -2.671875 L 18.703125 -5.34375 L 18.703125 0 Z M -2.671875 0 "/></g></g></g><g fill="#ffffff" fill-opacity="1"><g transform="translate(208.528242, 243.673386)"><g><path d="M 16.03125 -29.390625 L 16.03125 -69.453125 C 16.03125 -70.179688 15.75 -70.796875 15.1875 -71.296875 C 14.6875 -71.847656 14.078125 -72.125 13.359375 -72.125 L 8.015625 -72.125 C 7.234375 -72.125 6.59375 -71.847656 6.09375 -71.296875 C 5.59375 -70.796875 5.34375 -70.179688 5.34375 -69.453125 L 5.34375 -29.390625 Z M -2.671875 0 L 0 -2.671875 L 0 -69.453125 C 0 -70.898438 0.5 -72.15625 1.5 -73.21875 C 2.5625 -74.269531 3.84375 -74.796875 5.34375 -74.796875 L 16.03125 -74.796875 C 17.476562 -74.796875 18.726562 -74.269531 19.78125 -73.21875 C 20.84375 -72.15625 21.375 -70.898438 21.375 -69.453125 L 21.375 -2.671875 L 24.046875 0 L 16.03125 0 L 16.03125 -26.71875 L 5.34375 -26.71875 L 5.34375 0 Z M -2.671875 0 "/></g></g></g><g fill="#ffffff" fill-opacity="1"><g transform="translate(238.914257, 243.673386)"><g><path d="M -2.671875 0 L 0 -2.671875 L 0 -72.125 L -2.671875 -74.796875 L 13.359375 -74.796875 C 14.804688 -74.796875 16.054688 -74.269531 17.109375 -73.21875 C 18.171875 -72.15625 18.703125 -70.898438 18.703125 -69.453125 L 18.703125 -5.34375 C 18.703125 -4.5625 18.953125 -3.921875 19.453125 -3.421875 C 19.953125 -2.921875 20.59375 -2.671875 21.375 -2.671875 L 26.71875 -2.671875 L 26.71875 -74.796875 L 34.734375 -74.796875 L 32.0625 -72.125 L 32.0625 -2.671875 L 34.734375 0 L 18.703125 0 C 17.203125 0 15.921875 -0.5 14.859375 -1.5 C 13.859375 -2.5625 13.359375 -3.84375 13.359375 -5.34375 L 13.359375 -69.453125 C 13.359375 -70.179688 13.078125 -70.796875 12.515625 -71.296875 C 12.015625 -71.847656 11.40625 -72.125 10.6875 -72.125 L 5.34375 -72.125 L 5.34375 0 Z M -2.671875 0 "/></g></g></g><g fill="#ffffff" fill-opacity="1"><g transform="translate(279.985462, 243.673386)"><g><path d="M -2.671875 0 L 0 -2.671875 L 0 -72.125 L -2.671875 -74.796875 L 18.703125 -74.796875 L 18.703125 -69.453125 L 16.03125 -72.125 L 5.34375 -72.125 L 5.34375 -32.0625 L 13.359375 -32.0625 L 13.359375 -29.390625 L 5.34375 -29.390625 L 5.34375 -2.671875 L 16.03125 -2.671875 L 18.703125 -5.34375 L 18.703125 0 Z M -2.671875 0 "/></g></g></g><path fill="#ffffff" d="M 186.136719 115.332031 C 159.621094 115.207031 136.816406 119.417969 133.527344 119.835938 C 128.261719 120.5 126.535156 124.121094 126.535156 124.121094 L 116.339844 146.472656 C 118.140625 146.253906 120.464844 145.972656 123.21875 145.636719 C 123.839844 103.21875 230.871094 119.601562 234.457031 121.992188 C 219.292969 117.042969 202.046875 115.40625 186.136719 115.332031 Z M 186.136719 115.332031 " fill-opacity="1" fill-rule="nonzero"/><g clip-path="url(#707faac0ce)"><path fill="#ffffff" d="M 162.359375 121.238281 C 162.359375 121.238281 190.132812 116.472656 234.074219 124.347656 C 233.65625 123.933594 242.570312 131.394531 247.335938 146.734375 C 247.128906 146.527344 128.988281 136.371094 94.792969 163.105469 C 95.414062 162.277344 109.507812 147.5625 151.789062 143.832031 C 194.070312 140.101562 244.4375 149.84375 238.425781 135.542969 C 232.414062 121.238281 199.667969 121.238281 162.359375 121.238281 Z M 162.359375 121.238281 " fill-opacity="1" fill-rule="nonzero"/></g><path fill="#ffffff" d="M 116.96875 146.265625 L 113.394531 149.582031 C 113.394531 149.582031 111.007812 146.527344 102.875 146.835938 C 94.738281 147.148438 99.195312 138.132812 104.015625 138.027344 C 108.832031 137.925781 113.496094 137.09375 113.132812 139.582031 C 112.769531 142.070312 112.71875 145.335938 111.992188 145.644531 C 111.269531 145.957031 112.046875 138.546875 106.035156 139.6875 C 100.023438 140.828125 101.21875 143.261719 102.71875 143.832031 C 104.222656 144.402344 106.398438 142.949219 108.210938 145.074219 C 110.027344 147.199219 115.363281 148.339844 116.96875 146.265625 Z M 116.96875 146.265625 " fill-opacity="1" fill-rule="nonzero"/><path fill="#ffffff" d="M 246.96875 146.632812 L 250.542969 149.949219 C 250.542969 149.949219 252.925781 146.890625 261.0625 147.203125 C 269.195312 147.511719 264.738281 138.496094 259.921875 138.394531 C 255.101562 138.289062 250.4375 137.460938 250.800781 139.949219 C 251.164062 142.433594 251.214844 145.699219 251.941406 146.011719 C 252.667969 146.320312 251.890625 138.910156 257.898438 140.050781 C 263.910156 141.191406 262.71875 143.625 261.214844 144.195312 C 259.714844 144.765625 257.535156 143.316406 255.722656 145.441406 C 253.910156 147.5625 248.574219 148.703125 246.96875 146.632812 Z M 246.96875 146.632812 " fill-opacity="1" fill-rule="nonzero"/><g clip-path="url(#095a72a824)"><path fill="#ffffff" d="M 188.636719 147.148438 C 168.5 147.214844 146.480469 149.421875 122.175781 156.785156 L 122.214844 156.777344 C 159.589844 147.828125 202.785156 148.011719 233.792969 150.257812 C 233.691406 150.261719 233.644531 150.261719 233.539062 150.265625 C 229.382812 150.476562 226.863281 151.089844 221.332031 151.585938 C 215.804688 152.078125 210.246094 152.707031 205.964844 153.480469 C 203.828125 153.863281 202.011719 154.285156 200.664062 154.742188 C 199.992188 154.972656 199.4375 155.214844 199.011719 155.476562 C 198.585938 155.734375 198.273438 156.015625 198.148438 156.378906 C 198.015625 156.757812 198.183594 157.160156 198.496094 157.453125 C 237.808594 181.589844 264.613281 135.8125 271.078125 166.859375 C 271.382812 166.839844 271.683594 166.820312 271.972656 166.8125 C 270.652344 157.496094 265.851562 155.199219 263.96875 152.066406 C 263.382812 151.089844 262.605469 150.628906 261.808594 150.558594 C 261.015625 150.488281 260.226562 150.773438 259.527344 151.15625 C 254.386719 155.011719 248.121094 157.421875 242.128906 158.554688 C 235.890625 159.679688 228.835938 160.136719 222.242188 160.132812 C 190.542969 154.421875 227.855469 151.882812 243.761719 150.34375 C 227.011719 149.148438 208.769531 147.078125 188.636719 147.148438 Z M 188.636719 147.148438 " fill-opacity="1" fill-rule="nonzero"/></g><g fill="#ffffff" fill-opacity="1"><g transform="translate(142.574012, 267.268134)"><g><path d="M 8.96875 -6.890625 C 8.96875 -6.710938 8.90625 -6.625 8.78125 -6.625 C 8.675781 -6.625 8.585938 -6.726562 8.515625 -6.9375 C 8.453125 -7.15625 8.328125 -7.359375 8.140625 -7.546875 C 7.953125 -7.734375 7.726562 -7.890625 7.46875 -8.015625 C 6.925781 -8.285156 6.335938 -8.421875 5.703125 -8.421875 C 5.078125 -8.421875 4.535156 -8.335938 4.078125 -8.171875 C 3.628906 -8.003906 3.238281 -7.757812 2.90625 -7.4375 C 2.226562 -6.769531 1.890625 -5.867188 1.890625 -4.734375 C 1.890625 -3.472656 2.273438 -2.4375 3.046875 -1.625 C 3.804688 -0.8125 4.785156 -0.40625 5.984375 -0.40625 C 7.304688 -0.40625 8.332031 -1.015625 9.0625 -2.234375 C 9.101562 -2.316406 9.148438 -2.359375 9.203125 -2.359375 C 9.253906 -2.359375 9.300781 -2.304688 9.34375 -2.203125 C 9.394531 -2.097656 9.421875 -1.984375 9.421875 -1.859375 C 9.421875 -1.640625 9.234375 -1.351562 8.859375 -1 C 8.492188 -0.65625 8.046875 -0.375 7.515625 -0.15625 C 6.984375 0.0507812 6.363281 0.15625 5.65625 0.15625 C 4.945312 0.15625 4.273438 0.0390625 3.640625 -0.1875 C 3.015625 -0.414062 2.484375 -0.726562 2.046875 -1.125 C 1.117188 -1.945312 0.65625 -2.984375 0.65625 -4.234375 C 0.65625 -5.640625 1.125 -6.773438 2.0625 -7.640625 C 2.988281 -8.515625 4.21875 -8.953125 5.75 -8.953125 C 6.851562 -8.953125 7.765625 -8.800781 8.484375 -8.5 C 8.617188 -8.445312 8.707031 -8.390625 8.75 -8.328125 C 8.84375 -8.203125 8.894531 -8.019531 8.90625 -7.78125 C 8.925781 -7.539062 8.9375 -7.375 8.9375 -7.28125 C 8.957031 -7.0625 8.96875 -6.929688 8.96875 -6.890625 Z M 8.96875 -6.890625 "/></g></g><g transform="translate(152.32173, 267.268134)"><g><path d="M 1.46875 0 C 1.238281 0 1.023438 0.015625 0.828125 0.046875 C 0.640625 0.078125 0.429688 0.09375 0.203125 0.09375 C -0.015625 0.09375 -0.125 0.0195312 -0.125 -0.125 C -0.125 -0.269531 -0.0234375 -0.34375 0.171875 -0.34375 C 0.390625 -0.34375 0.546875 -0.378906 0.640625 -0.453125 C 0.785156 -0.585938 0.929688 -0.804688 1.078125 -1.109375 C 1.222656 -1.421875 1.359375 -1.707031 1.484375 -1.96875 C 1.609375 -2.238281 1.75 -2.550781 1.90625 -2.90625 C 2.070312 -3.269531 2.25 -3.671875 2.4375 -4.109375 C 2.632812 -4.546875 2.835938 -5.007812 3.046875 -5.5 C 3.609375 -6.800781 3.976562 -7.675781 4.15625 -8.125 C 4.34375 -8.570312 4.441406 -8.816406 4.453125 -8.859375 C 4.472656 -8.910156 4.492188 -8.957031 4.515625 -9 C 4.578125 -9.09375 4.625 -9.140625 4.65625 -9.140625 C 4.695312 -9.140625 4.726562 -9.132812 4.75 -9.125 C 4.78125 -9.113281 4.8125 -9.09375 4.84375 -9.0625 C 4.914062 -8.976562 4.984375 -8.851562 5.046875 -8.6875 C 5.109375 -8.519531 5.195312 -8.296875 5.3125 -8.015625 C 5.425781 -7.742188 5.550781 -7.429688 5.6875 -7.078125 C 5.832031 -6.722656 5.984375 -6.34375 6.140625 -5.9375 C 6.304688 -5.53125 6.472656 -5.125 6.640625 -4.71875 C 6.804688 -4.3125 6.96875 -3.914062 7.125 -3.53125 C 7.28125 -3.15625 7.414062 -2.816406 7.53125 -2.515625 C 7.90625 -1.597656 8.144531 -1.050781 8.25 -0.875 C 8.363281 -0.695312 8.453125 -0.570312 8.515625 -0.5 C 8.628906 -0.394531 8.789062 -0.34375 9 -0.34375 C 9.21875 -0.34375 9.328125 -0.269531 9.328125 -0.125 C 9.328125 0.0195312 9.1875 0.09375 8.90625 0.09375 C 8.789062 0.09375 8.691406 0.0859375 8.609375 0.078125 C 8.523438 0.0664062 8.4375 0.0546875 8.34375 0.046875 C 8.09375 0.015625 7.867188 0 7.671875 0 L 6.40625 0.09375 C 6.125 0.09375 5.984375 0.015625 5.984375 -0.140625 C 5.984375 -0.273438 6.0625 -0.34375 6.21875 -0.34375 L 6.609375 -0.296875 C 6.773438 -0.296875 6.882812 -0.332031 6.9375 -0.40625 C 6.988281 -0.476562 7.015625 -0.566406 7.015625 -0.671875 C 7.015625 -0.878906 6.925781 -1.195312 6.75 -1.625 L 6.21875 -3 L 2.578125 -3 C 2.472656 -2.738281 2.375 -2.5 2.28125 -2.28125 C 2.195312 -2.0625 2.113281 -1.847656 2.03125 -1.640625 C 1.914062 -1.304688 1.859375 -1.039062 1.859375 -0.84375 C 1.859375 -0.65625 1.890625 -0.515625 1.953125 -0.421875 C 2.023438 -0.335938 2.15625 -0.296875 2.34375 -0.296875 L 2.734375 -0.328125 C 2.890625 -0.328125 2.96875 -0.265625 2.96875 -0.140625 C 2.96875 0.015625 2.828125 0.09375 2.546875 0.09375 Z M 5.984375 -3.546875 L 4.4375 -7.453125 C 4.132812 -6.691406 3.59375 -5.390625 2.8125 -3.546875 Z M 5.984375 -3.546875 "/></g></g><g transform="translate(161.578132, 267.268134)"><g><path d="M 0.875 0.09375 C 0.59375 0.09375 0.453125 0.015625 0.453125 -0.140625 C 0.453125 -0.265625 0.53125 -0.328125 0.6875 -0.328125 L 1 -0.296875 C 1.257812 -0.296875 1.4375 -0.441406 1.53125 -0.734375 C 1.601562 -0.984375 1.640625 -1.429688 1.640625 -2.078125 L 1.640625 -6.703125 C 1.640625 -7.347656 1.609375 -7.769531 1.546875 -7.96875 C 1.492188 -8.164062 1.421875 -8.300781 1.328125 -8.375 C 1.242188 -8.445312 1.132812 -8.484375 1 -8.484375 L 0.6875 -8.453125 C 0.53125 -8.453125 0.453125 -8.515625 0.453125 -8.640625 C 0.453125 -8.804688 0.570312 -8.890625 0.8125 -8.890625 C 1.050781 -8.890625 1.273438 -8.867188 1.484375 -8.828125 C 1.703125 -8.796875 1.929688 -8.78125 2.171875 -8.78125 C 2.398438 -8.78125 2.625 -8.796875 2.84375 -8.828125 C 3.0625 -8.867188 3.335938 -8.890625 3.671875 -8.890625 C 4.015625 -8.890625 4.378906 -8.832031 4.765625 -8.71875 C 5.160156 -8.613281 5.488281 -8.457031 5.75 -8.25 C 6.3125 -7.84375 6.59375 -7.296875 6.59375 -6.609375 C 6.59375 -5.847656 6.28125 -5.191406 5.65625 -4.640625 C 5.445312 -4.460938 5.222656 -4.3125 4.984375 -4.1875 L 7.109375 -1.09375 C 7.347656 -0.738281 7.613281 -0.523438 7.90625 -0.453125 C 7.988281 -0.429688 8.09375 -0.414062 8.21875 -0.40625 C 8.4375 -0.382812 8.546875 -0.3125 8.546875 -0.1875 C 8.546875 -0.0625 8.425781 0 8.1875 0 L 6.9375 0 C 6.632812 0 6.359375 -0.195312 6.109375 -0.59375 L 4.46875 -3.234375 C 4.3125 -3.460938 4.164062 -3.625 4.03125 -3.71875 C 3.894531 -3.820312 3.6875 -3.875 3.40625 -3.875 C 3.125 -3.875 2.878906 -3.867188 2.671875 -3.859375 L 2.671875 -2.078125 C 2.671875 -1.421875 2.695312 -0.992188 2.75 -0.796875 C 2.8125 -0.609375 2.882812 -0.476562 2.96875 -0.40625 C 3.0625 -0.332031 3.175781 -0.296875 3.3125 -0.296875 L 3.625 -0.328125 C 3.78125 -0.328125 3.859375 -0.265625 3.859375 -0.140625 C 3.859375 0.015625 3.722656 0.09375 3.453125 0.09375 C 3.304688 0.09375 3.148438 0.0820312 2.984375 0.0625 C 2.460938 -0.0195312 2.015625 -0.0351562 1.640625 0.015625 C 1.265625 0.0664062 1.007812 0.09375 0.875 0.09375 Z M 2.671875 -4.4375 C 2.953125 -4.40625 3.226562 -4.390625 3.5 -4.390625 L 3.90625 -4.390625 C 4.332031 -4.390625 4.691406 -4.53125 4.984375 -4.8125 C 5.316406 -5.15625 5.484375 -5.613281 5.484375 -6.1875 C 5.484375 -6.882812 5.273438 -7.4375 4.859375 -7.84375 C 4.460938 -8.226562 3.953125 -8.421875 3.328125 -8.421875 C 3.097656 -8.421875 2.929688 -8.390625 2.828125 -8.328125 C 2.722656 -8.273438 2.671875 -8.171875 2.671875 -8.015625 Z M 2.671875 -4.4375 "/></g></g><g transform="translate(170.107385, 267.268134)"><g/></g><g transform="translate(173.5466, 267.268134)"><g><path d="M 0.84375 0.09375 C 0.5625 0.09375 0.421875 0.0195312 0.421875 -0.125 C 0.421875 -0.28125 0.515625 -0.359375 0.703125 -0.359375 C 0.972656 -0.359375 1.164062 -0.398438 1.28125 -0.484375 C 1.507812 -0.648438 1.640625 -0.929688 1.671875 -1.328125 C 1.679688 -1.421875 1.691406 -1.5625 1.703125 -1.75 C 1.710938 -1.9375 1.722656 -2.15625 1.734375 -2.40625 C 1.753906 -2.65625 1.769531 -2.929688 1.78125 -3.234375 C 1.800781 -3.535156 1.816406 -3.847656 1.828125 -4.171875 C 1.847656 -4.492188 1.863281 -4.816406 1.875 -5.140625 C 1.882812 -5.460938 1.894531 -5.769531 1.90625 -6.0625 C 1.925781 -6.789062 1.9375 -7.25 1.9375 -7.4375 C 1.9375 -7.632812 1.921875 -7.785156 1.890625 -7.890625 C 1.867188 -8.003906 1.832031 -8.097656 1.78125 -8.171875 C 1.675781 -8.285156 1.519531 -8.359375 1.3125 -8.390625 C 0.9375 -8.441406 0.75 -8.523438 0.75 -8.640625 C 0.75 -8.710938 0.773438 -8.769531 0.828125 -8.8125 C 0.878906 -8.863281 0.953125 -8.890625 1.046875 -8.890625 L 2.078125 -8.796875 L 2.640625 -8.828125 C 2.753906 -8.828125 2.84375 -8.78125 2.90625 -8.6875 C 2.976562 -8.59375 3.054688 -8.460938 3.140625 -8.296875 L 6.3125 -1.71875 C 6.382812 -1.882812 6.484375 -2.109375 6.609375 -2.390625 C 6.734375 -2.671875 6.867188 -2.976562 7.015625 -3.3125 C 7.160156 -3.65625 7.316406 -4.015625 7.484375 -4.390625 C 7.648438 -4.773438 7.8125 -5.15625 7.96875 -5.53125 C 8.132812 -5.90625 8.289062 -6.265625 8.4375 -6.609375 C 8.582031 -6.960938 8.710938 -7.269531 8.828125 -7.53125 C 8.941406 -7.800781 9.035156 -8.019531 9.109375 -8.1875 C 9.191406 -8.363281 9.242188 -8.488281 9.265625 -8.5625 C 9.296875 -8.632812 9.351562 -8.703125 9.4375 -8.765625 C 9.519531 -8.828125 9.617188 -8.859375 9.734375 -8.859375 L 10.34375 -8.828125 L 11.140625 -8.890625 C 11.460938 -8.890625 11.625 -8.804688 11.625 -8.640625 C 11.625 -8.566406 11.550781 -8.515625 11.40625 -8.484375 C 11.257812 -8.453125 11.132812 -8.425781 11.03125 -8.40625 C 10.9375 -8.382812 10.847656 -8.351562 10.765625 -8.3125 C 10.554688 -8.195312 10.453125 -8.015625 10.453125 -7.765625 L 10.796875 -1.34375 C 10.828125 -0.78125 11.035156 -0.460938 11.421875 -0.390625 C 11.535156 -0.367188 11.644531 -0.359375 11.75 -0.359375 C 11.9375 -0.359375 12.03125 -0.28125 12.03125 -0.125 C 12.03125 0.0195312 11.894531 0.09375 11.625 0.09375 C 11.507812 0.09375 11.410156 0.0859375 11.328125 0.078125 C 11.253906 0.0664062 11.179688 0.0546875 11.109375 0.046875 C 10.867188 0.015625 10.648438 0 10.453125 0 L 9.0625 0.09375 C 8.78125 0.09375 8.640625 0.015625 8.640625 -0.140625 C 8.640625 -0.273438 8.738281 -0.34375 8.9375 -0.34375 C 9.144531 -0.34375 9.296875 -0.359375 9.390625 -0.390625 C 9.484375 -0.429688 9.550781 -0.484375 9.59375 -0.546875 C 9.65625 -0.648438 9.6875 -0.898438 9.6875 -1.296875 L 9.6875 -1.90625 C 9.6875 -2.207031 9.664062 -2.8125 9.625 -3.71875 C 9.582031 -4.625 9.550781 -5.269531 9.53125 -5.65625 C 9.5 -6.476562 9.46875 -7.101562 9.4375 -7.53125 L 6.34375 -0.421875 C 6.226562 -0.171875 6.125 -0.046875 6.03125 -0.046875 C 5.96875 -0.046875 5.914062 -0.078125 5.875 -0.140625 C 5.832031 -0.203125 5.773438 -0.300781 5.703125 -0.4375 L 2.53125 -6.96875 C 2.363281 -4.75 2.28125 -2.71875 2.28125 -0.875 C 2.28125 -0.507812 2.570312 -0.328125 3.15625 -0.328125 C 3.3125 -0.328125 3.390625 -0.265625 3.390625 -0.140625 C 3.390625 0.015625 3.25 0.09375 2.96875 0.09375 L 1.90625 0 C 1.6875 0 1.476562 0.015625 1.28125 0.046875 C 1.082031 0.078125 0.9375 0.09375 0.84375 0.09375 Z M 9.640625 -7.984375 Z M 9.640625 -7.984375 "/></g></g><g transform="translate(185.999833, 267.268134)"><g><path d="M 3.53125 -8.453125 L 3.21875 -8.484375 C 2.957031 -8.484375 2.78125 -8.335938 2.6875 -8.046875 C 2.601562 -7.785156 2.5625 -7.335938 2.5625 -6.703125 L 2.5625 -3.46875 C 2.5625 -2.863281 2.601562 -2.425781 2.6875 -2.15625 C 2.769531 -1.894531 2.890625 -1.65625 3.046875 -1.4375 C 3.210938 -1.21875 3.40625 -1.03125 3.625 -0.875 C 4.050781 -0.570312 4.535156 -0.421875 5.078125 -0.421875 C 5.617188 -0.421875 6.066406 -0.484375 6.421875 -0.609375 C 6.773438 -0.742188 7.0625 -0.9375 7.28125 -1.1875 C 7.664062 -1.664062 7.859375 -2.4375 7.859375 -3.5 L 7.84375 -6.703125 C 7.84375 -7.347656 7.8125 -7.769531 7.75 -7.96875 C 7.6875 -8.164062 7.613281 -8.300781 7.53125 -8.375 C 7.445312 -8.445312 7.335938 -8.484375 7.203125 -8.484375 L 6.875 -8.453125 C 6.71875 -8.453125 6.640625 -8.515625 6.640625 -8.640625 C 6.640625 -8.804688 6.757812 -8.890625 7 -8.890625 C 7.238281 -8.890625 7.445312 -8.867188 7.625 -8.828125 C 7.8125 -8.796875 8.003906 -8.78125 8.203125 -8.78125 L 9.28125 -8.890625 C 9.5625 -8.890625 9.703125 -8.804688 9.703125 -8.640625 C 9.703125 -8.515625 9.625 -8.453125 9.46875 -8.453125 L 9.15625 -8.484375 C 8.882812 -8.484375 8.707031 -8.335938 8.625 -8.046875 C 8.539062 -7.785156 8.5 -7.335938 8.5 -6.703125 L 8.5 -3.171875 C 8.5 -2.191406 8.1875 -1.390625 7.5625 -0.765625 C 6.9375 -0.148438 6.101562 0.15625 5.0625 0.15625 C 3.9375 0.15625 3.046875 -0.148438 2.390625 -0.765625 C 1.722656 -1.421875 1.390625 -2.320312 1.390625 -3.46875 L 1.390625 -6.703125 C 1.390625 -7.335938 1.351562 -7.753906 1.28125 -7.953125 C 1.21875 -8.160156 1.140625 -8.300781 1.046875 -8.375 C 0.960938 -8.445312 0.851562 -8.484375 0.71875 -8.484375 L 0.390625 -8.453125 C 0.234375 -8.453125 0.15625 -8.515625 0.15625 -8.640625 C 0.15625 -8.804688 0.273438 -8.890625 0.515625 -8.890625 C 0.765625 -8.890625 1.003906 -8.867188 1.234375 -8.828125 C 1.460938 -8.796875 1.703125 -8.78125 1.953125 -8.78125 C 2.210938 -8.78125 2.460938 -8.796875 2.703125 -8.828125 C 2.941406 -8.867188 3.179688 -8.890625 3.421875 -8.890625 C 3.660156 -8.890625 3.78125 -8.804688 3.78125 -8.640625 C 3.78125 -8.515625 3.695312 -8.453125 3.53125 -8.453125 Z M 3.53125 -8.453125 "/></g></g><g transform="translate(195.865467, 267.268134)"><g><path d="M 5.09375 -8.6875 L 5.375 -8.71875 C 5.488281 -8.71875 5.550781 -8.617188 5.5625 -8.421875 C 5.582031 -8.222656 5.601562 -8.0625 5.625 -7.9375 C 5.644531 -7.8125 5.664062 -7.695312 5.6875 -7.59375 C 5.707031 -7.488281 5.722656 -7.398438 5.734375 -7.328125 C 5.753906 -7.265625 5.765625 -7.207031 5.765625 -7.15625 C 5.765625 -7.113281 5.738281 -7.070312 5.6875 -7.03125 C 5.632812 -6.988281 5.582031 -6.96875 5.53125 -6.96875 C 5.425781 -6.96875 5.328125 -7.078125 5.234375 -7.296875 C 5.054688 -7.703125 4.90625 -7.960938 4.78125 -8.078125 C 4.5 -8.328125 4.082031 -8.453125 3.53125 -8.453125 C 2.757812 -8.453125 2.242188 -8.222656 1.984375 -7.765625 C 1.898438 -7.617188 1.859375 -7.4375 1.859375 -7.21875 C 1.859375 -7.007812 1.90625 -6.8125 2 -6.625 C 2.101562 -6.4375 2.257812 -6.25 2.46875 -6.0625 C 2.6875 -5.875 2.957031 -5.671875 3.28125 -5.453125 C 3.613281 -5.234375 3.96875 -4.992188 4.34375 -4.734375 C 4.71875 -4.472656 5.007812 -4.238281 5.21875 -4.03125 C 5.425781 -3.820312 5.597656 -3.617188 5.734375 -3.421875 C 5.984375 -3.023438 6.109375 -2.644531 6.109375 -2.28125 C 6.109375 -1.914062 6.054688 -1.585938 5.953125 -1.296875 C 5.847656 -1.015625 5.675781 -0.765625 5.4375 -0.546875 C 4.925781 -0.078125 4.171875 0.15625 3.171875 0.15625 C 2.660156 0.15625 2.101562 0.046875 1.5 -0.171875 C 1.351562 -0.222656 1.265625 -0.273438 1.234375 -0.328125 C 1.191406 -0.410156 1.15625 -0.550781 1.125 -0.75 C 1.09375 -0.957031 1.054688 -1.144531 1.015625 -1.3125 C 0.972656 -1.476562 0.9375 -1.625 0.90625 -1.75 L 0.8125 -2.09375 C 0.78125 -2.195312 0.765625 -2.28125 0.765625 -2.34375 C 0.765625 -2.5 0.828125 -2.578125 0.953125 -2.578125 C 1.109375 -2.578125 1.222656 -2.457031 1.296875 -2.21875 C 1.410156 -1.789062 1.519531 -1.515625 1.625 -1.390625 C 1.988281 -0.898438 2.414062 -0.582031 2.90625 -0.4375 C 3.050781 -0.382812 3.242188 -0.359375 3.484375 -0.359375 C 3.734375 -0.359375 3.972656 -0.394531 4.203125 -0.46875 C 4.441406 -0.539062 4.632812 -0.640625 4.78125 -0.765625 C 5.070312 -1.003906 5.21875 -1.289062 5.21875 -1.625 C 5.21875 -1.96875 5.109375 -2.273438 4.890625 -2.546875 C 4.671875 -2.816406 4.410156 -3.050781 4.109375 -3.25 C 3.804688 -3.457031 3.578125 -3.609375 3.421875 -3.703125 C 3.273438 -3.804688 3.140625 -3.898438 3.015625 -3.984375 C 1.898438 -4.722656 1.242188 -5.457031 1.046875 -6.1875 C 0.992188 -6.375 0.96875 -6.59375 0.96875 -6.84375 C 0.96875 -7.09375 1.03125 -7.347656 1.15625 -7.609375 C 1.28125 -7.878906 1.453125 -8.109375 1.671875 -8.296875 C 2.179688 -8.734375 2.832031 -8.953125 3.625 -8.953125 C 3.988281 -8.953125 4.28125 -8.910156 4.5 -8.828125 C 4.800781 -8.734375 5 -8.6875 5.09375 -8.6875 Z M 5.09375 -8.6875 "/></g></g><g transform="translate(202.540819, 267.268134)"><g><path d="M 0.78125 0.09375 C 0.539062 0.09375 0.421875 0.015625 0.421875 -0.140625 C 0.421875 -0.265625 0.5 -0.328125 0.65625 -0.328125 L 0.984375 -0.296875 C 1.222656 -0.296875 1.390625 -0.398438 1.484375 -0.609375 C 1.578125 -0.847656 1.625 -1.332031 1.625 -2.0625 L 1.625 -6.703125 C 1.625 -7.421875 1.585938 -7.875 1.515625 -8.0625 C 1.453125 -8.25 1.378906 -8.363281 1.296875 -8.40625 C 1.210938 -8.457031 1.109375 -8.484375 0.984375 -8.484375 L 0.65625 -8.453125 C 0.5 -8.453125 0.421875 -8.515625 0.421875 -8.640625 C 0.421875 -8.804688 0.535156 -8.890625 0.765625 -8.890625 C 1.003906 -8.890625 1.195312 -8.882812 1.34375 -8.875 C 1.5 -8.863281 1.65625 -8.847656 1.8125 -8.828125 C 2.21875 -8.796875 2.535156 -8.78125 2.765625 -8.78125 C 3.003906 -8.78125 3.253906 -8.785156 3.515625 -8.796875 C 3.773438 -8.804688 4.066406 -8.816406 4.390625 -8.828125 C 5.242188 -8.867188 5.832031 -8.890625 6.15625 -8.890625 C 6.488281 -8.890625 6.671875 -8.867188 6.703125 -8.828125 C 6.742188 -8.785156 6.765625 -8.726562 6.765625 -8.65625 C 6.765625 -8.59375 6.765625 -8.53125 6.765625 -8.46875 C 6.765625 -8.40625 6.757812 -8.335938 6.75 -8.265625 C 6.75 -8.171875 6.738281 -8.023438 6.71875 -7.828125 C 6.695312 -7.628906 6.671875 -7.492188 6.640625 -7.421875 C 6.609375 -7.359375 6.5625 -7.328125 6.5 -7.328125 C 6.445312 -7.328125 6.410156 -7.335938 6.390625 -7.359375 C 6.367188 -7.390625 6.335938 -7.457031 6.296875 -7.5625 C 6.265625 -7.664062 6.203125 -7.765625 6.109375 -7.859375 C 6.015625 -7.953125 5.863281 -8.03125 5.65625 -8.09375 C 5.269531 -8.207031 4.546875 -8.265625 3.484375 -8.265625 L 2.890625 -8.265625 C 2.785156 -8.265625 2.71875 -8.25 2.6875 -8.21875 C 2.664062 -8.1875 2.65625 -8.117188 2.65625 -8.015625 L 2.65625 -5.25 C 3.175781 -5.1875 3.609375 -5.15625 3.953125 -5.15625 C 4.296875 -5.15625 4.539062 -5.15625 4.6875 -5.15625 C 4.832031 -5.164062 4.953125 -5.179688 5.046875 -5.203125 C 5.210938 -5.234375 5.332031 -5.3125 5.40625 -5.4375 C 5.5625 -5.664062 5.6875 -5.78125 5.78125 -5.78125 C 5.894531 -5.78125 5.953125 -5.71875 5.953125 -5.59375 L 5.71875 -4.671875 L 5.75 -4.171875 C 5.75 -3.859375 5.675781 -3.703125 5.53125 -3.703125 C 5.394531 -3.703125 5.328125 -3.785156 5.328125 -3.953125 C 5.328125 -4.117188 5.316406 -4.242188 5.296875 -4.328125 C 5.285156 -4.410156 5.234375 -4.472656 5.140625 -4.515625 C 4.992188 -4.585938 4.648438 -4.625 4.109375 -4.625 C 3.566406 -4.625 3.082031 -4.601562 2.65625 -4.5625 L 2.65625 -3 C 2.65625 -2.03125 2.675781 -1.234375 2.71875 -0.609375 C 3.070312 -0.523438 3.457031 -0.484375 3.875 -0.484375 C 4.289062 -0.484375 4.644531 -0.492188 4.9375 -0.515625 C 5.226562 -0.546875 5.484375 -0.59375 5.703125 -0.65625 C 6.128906 -0.78125 6.441406 -1.023438 6.640625 -1.390625 C 6.722656 -1.546875 6.804688 -1.625 6.890625 -1.625 C 6.984375 -1.625 7.03125 -1.554688 7.03125 -1.421875 C 7.03125 -1.367188 7.015625 -1.300781 6.984375 -1.21875 C 6.953125 -1.113281 6.898438 -0.945312 6.828125 -0.71875 C 6.765625 -0.488281 6.710938 -0.320312 6.671875 -0.21875 C 6.640625 -0.125 6.601562 -0.0507812 6.5625 0 C 6.5 0.0820312 6.367188 0.125 6.171875 0.125 C 5.984375 0.125 5.800781 0.125 5.625 0.125 C 5.445312 0.125 5.257812 0.125 5.0625 0.125 C 4.832031 0.113281 4.476562 0.09375 4 0.0625 C 2.8125 0.0078125 2.113281 -0.0078125 1.90625 0 C 1.707031 0.0195312 1.554688 0.0351562 1.453125 0.046875 C 1.347656 0.0546875 1.242188 0.0664062 1.140625 0.078125 C 1.035156 0.0859375 0.914062 0.09375 0.78125 0.09375 Z M 0.78125 0.09375 "/></g></g><g transform="translate(210.093991, 267.268134)"><g><path d="M 3.53125 -8.453125 L 3.21875 -8.484375 C 2.957031 -8.484375 2.78125 -8.335938 2.6875 -8.046875 C 2.601562 -7.785156 2.5625 -7.335938 2.5625 -6.703125 L 2.5625 -3.46875 C 2.5625 -2.863281 2.601562 -2.425781 2.6875 -2.15625 C 2.769531 -1.894531 2.890625 -1.65625 3.046875 -1.4375 C 3.210938 -1.21875 3.40625 -1.03125 3.625 -0.875 C 4.050781 -0.570312 4.535156 -0.421875 5.078125 -0.421875 C 5.617188 -0.421875 6.066406 -0.484375 6.421875 -0.609375 C 6.773438 -0.742188 7.0625 -0.9375 7.28125 -1.1875 C 7.664062 -1.664062 7.859375 -2.4375 7.859375 -3.5 L 7.84375 -6.703125 C 7.84375 -7.347656 7.8125 -7.769531 7.75 -7.96875 C 7.6875 -8.164062 7.613281 -8.300781 7.53125 -8.375 C 7.445312 -8.445312 7.335938 -8.484375 7.203125 -8.484375 L 6.875 -8.453125 C 6.71875 -8.453125 6.640625 -8.515625 6.640625 -8.640625 C 6.640625 -8.804688 6.757812 -8.890625 7 -8.890625 C 7.238281 -8.890625 7.445312 -8.867188 7.625 -8.828125 C 7.8125 -8.796875 8.003906 -8.78125 8.203125 -8.78125 L 9.28125 -8.890625 C 9.5625 -8.890625 9.703125 -8.804688 9.703125 -8.640625 C 9.703125 -8.515625 9.625 -8.453125 9.46875 -8.453125 L 9.15625 -8.484375 C 8.882812 -8.484375 8.707031 -8.335938 8.625 -8.046875 C 8.539062 -7.785156 8.5 -7.335938 8.5 -6.703125 L 8.5 -3.171875 C 8.5 -2.191406 8.1875 -1.390625 7.5625 -0.765625 C 6.9375 -0.148438 6.101562 0.15625 5.0625 0.15625 C 3.9375 0.15625 3.046875 -0.148438 2.390625 -0.765625 C 1.722656 -1.421875 1.390625 -2.320312 1.390625 -3.46875 L 1.390625 -6.703125 C 1.390625 -7.335938 1.351562 -7.753906 1.28125 -7.953125 C 1.21875 -8.160156 1.140625 -8.300781 1.046875 -8.375 C 0.960938 -8.445312 0.851562 -8.484375 0.71875 -8.484375 L 0.390625 -8.453125 C 0.234375 -8.453125 0.15625 -8.515625 0.15625 -8.640625 C 0.15625 -8.804688 0.273438 -8.890625 0.515625 -8.890625 C 0.765625 -8.890625 1.003906 -8.867188 1.234375 -8.828125 C 1.460938 -8.796875 1.703125 -8.78125 1.953125 -8.78125 C 2.210938 -8.78125 2.460938 -8.796875 2.703125 -8.828125 C 2.941406 -8.867188 3.179688 -8.890625 3.421875 -8.890625 C 3.660156 -8.890625 3.78125 -8.804688 3.78125 -8.640625 C 3.78125 -8.515625 3.695312 -8.453125 3.53125 -8.453125 Z M 3.53125 -8.453125 "/></g></g><g transform="translate(219.959624, 267.268134)"><g><path d="M 0.84375 0.09375 C 0.5625 0.09375 0.421875 0.0195312 0.421875 -0.125 C 0.421875 -0.28125 0.515625 -0.359375 0.703125 -0.359375 C 0.972656 -0.359375 1.164062 -0.398438 1.28125 -0.484375 C 1.507812 -0.648438 1.640625 -0.929688 1.671875 -1.328125 C 1.679688 -1.421875 1.691406 -1.5625 1.703125 -1.75 C 1.710938 -1.9375 1.722656 -2.15625 1.734375 -2.40625 C 1.753906 -2.65625 1.769531 -2.929688 1.78125 -3.234375 C 1.800781 -3.535156 1.816406 -3.847656 1.828125 -4.171875 C 1.847656 -4.492188 1.863281 -4.816406 1.875 -5.140625 C 1.882812 -5.460938 1.894531 -5.769531 1.90625 -6.0625 C 1.925781 -6.789062 1.9375 -7.25 1.9375 -7.4375 C 1.9375 -7.632812 1.921875 -7.785156 1.890625 -7.890625 C 1.867188 -8.003906 1.832031 -8.097656 1.78125 -8.171875 C 1.675781 -8.285156 1.519531 -8.359375 1.3125 -8.390625 C 0.9375 -8.441406 0.75 -8.523438 0.75 -8.640625 C 0.75 -8.710938 0.773438 -8.769531 0.828125 -8.8125 C 0.878906 -8.863281 0.953125 -8.890625 1.046875 -8.890625 L 2.078125 -8.796875 L 2.640625 -8.828125 C 2.753906 -8.828125 2.84375 -8.78125 2.90625 -8.6875 C 2.976562 -8.59375 3.054688 -8.460938 3.140625 -8.296875 L 6.3125 -1.71875 C 6.382812 -1.882812 6.484375 -2.109375 6.609375 -2.390625 C 6.734375 -2.671875 6.867188 -2.976562 7.015625 -3.3125 C 7.160156 -3.65625 7.316406 -4.015625 7.484375 -4.390625 C 7.648438 -4.773438 7.8125 -5.15625 7.96875 -5.53125 C 8.132812 -5.90625 8.289062 -6.265625 8.4375 -6.609375 C 8.582031 -6.960938 8.710938 -7.269531 8.828125 -7.53125 C 8.941406 -7.800781 9.035156 -8.019531 9.109375 -8.1875 C 9.191406 -8.363281 9.242188 -8.488281 9.265625 -8.5625 C 9.296875 -8.632812 9.351562 -8.703125 9.4375 -8.765625 C 9.519531 -8.828125 9.617188 -8.859375 9.734375 -8.859375 L 10.34375 -8.828125 L 11.140625 -8.890625 C 11.460938 -8.890625 11.625 -8.804688 11.625 -8.640625 C 11.625 -8.566406 11.550781 -8.515625 11.40625 -8.484375 C 11.257812 -8.453125 11.132812 -8.425781 11.03125 -8.40625 C 10.9375 -8.382812 10.847656 -8.351562 10.765625 -8.3125 C 10.554688 -8.195312 10.453125 -8.015625 10.453125 -7.765625 L 10.796875 -1.34375 C 10.828125 -0.78125 11.035156 -0.460938 11.421875 -0.390625 C 11.535156 -0.367188 11.644531 -0.359375 11.75 -0.359375 C 11.9375 -0.359375 12.03125 -0.28125 12.03125 -0.125 C 12.03125 0.0195312 11.894531 0.09375 11.625 0.09375 C 11.507812 0.09375 11.410156 0.0859375 11.328125 0.078125 C 11.253906 0.0664062 11.179688 0.0546875 11.109375 0.046875 C 10.867188 0.015625 10.648438 0 10.453125 0 L 9.0625 0.09375 C 8.78125 0.09375 8.640625 0.015625 8.640625 -0.140625 C 8.640625 -0.273438 8.738281 -0.34375 8.9375 -0.34375 C 9.144531 -0.34375 9.296875 -0.359375 9.390625 -0.390625 C 9.484375 -0.429688 9.550781 -0.484375 9.59375 -0.546875 C 9.65625 -0.648438 9.6875 -0.898438 9.6875 -1.296875 L 9.6875 -1.90625 C 9.6875 -2.207031 9.664062 -2.8125 9.625 -3.71875 C 9.582031 -4.625 9.550781 -5.269531 9.53125 -5.65625 C 9.5 -6.476562 9.46875 -7.101562 9.4375 -7.53125 L 6.34375 -0.421875 C 6.226562 -0.171875 6.125 -0.046875 6.03125 -0.046875 C 5.96875 -0.046875 5.914062 -0.078125 5.875 -0.140625 C 5.832031 -0.203125 5.773438 -0.300781 5.703125 -0.4375 L 2.53125 -6.96875 C 2.363281 -4.75 2.28125 -2.71875 2.28125 -0.875 C 2.28125 -0.507812 2.570312 -0.328125 3.15625 -0.328125 C 3.3125 -0.328125 3.390625 -0.265625 3.390625 -0.140625 C 3.390625 0.015625 3.25 0.09375 2.96875 0.09375 L 1.90625 0 C 1.6875 0 1.476562 0.015625 1.28125 0.046875 C 1.082031 0.078125 0.9375 0.09375 0.84375 0.09375 Z M 9.640625 -7.984375 Z M 9.640625 -7.984375 "/></g></g></g></svg>